<?xml version="1.0" encoding="UTF-8" standalone="no"?>
<svg xmlns="http://www.w3.org/2000/svg" preserveAspectRatio="xMinYMin" viewBox="0 0 957 720" width="335" height="252" version="1.1">
  <title>c't</title>
  <path d="m 441.83,0 h 162.85 l -86,351 H 436.73 L 485,153.92 h -80.88 z m 185.1,0 -85.84,349.18 -9.16,36.94 c -14.27,64.94 -21,102.53 -21,126.05 0,107.68 79.68,195.05 206.76,193.78 h 145 L 910,513.77 H 770.79 c 0,0 -18.35,-0.21 -28.79,-4.77 -11,-4.82 -17,-9.47 -24,-19.25 -5.85,-8.26 -8,-14.1 -9.67,-24.09 -2.17,-13 4,-33.59 4,-33.59 l 20,-81.55 H 910.64 L 953.15,177.6 H 775.07 L 818.73,0 Z M 331.41,177.49 C 144.18,177.23 0,358.93 0,511.46 c 0,107.7 78.86,197.3 206.25,194.43 h 198.07 l 47.26,-192.2 h -203 c -41.84,-0.23 -54.57,-42.38 -54.57,-67.95 0,-44.83 50.33,-95.19 98.79,-95.32 h 120.9 l 42.53,-172.94 z" style="fill:#0000ff"/>
</svg>
